# Blender v2.81 (sub 16) OBJ File: 'Box.blend'
# www.blender.org
g Box_Cube.001
v -0.850872 0.136475 1.000000
v -0.789746 1.987348 0.789746
v -0.843967 0.143381 -1.000000
v -0.789746 1.987348 -0.789746
v 1.000000 0.154609 0.832739
v 0.789746 1.987348 0.789746
v 1.000000 0.154609 -0.832739
v 0.789746 1.987348 -0.789746
v -0.850872 1.838220 1.000000
v -0.843967 1.831314 -1.000000
v 1.000000 1.820086 -0.832739
v 1.000000 1.820086 0.832739
v -0.789746 1.889431 0.789746
v -0.789746 1.889431 -0.789746
v 0.789746 1.889431 0.789746
v 0.789746 1.889431 -0.789746
v 0.843967 1.831314 -1.000000
v 0.843967 0.143381 -1.000000
v 0.850872 0.136475 1.000000
v 0.850872 1.838220 1.000000
v 0.912542 0.154609 0.832739
v 0.912542 0.154609 -0.832739
v 0.912542 1.820086 -0.832739
v 0.912542 1.820086 0.832739
v -1.000000 0.164237 0.823111
v -1.000000 1.810458 0.823111
v 1.000000 1.987348 1.000000
v 1.000000 -0.012652 1.000000
v -0.850872 0.136475 0.886909
v -0.850872 1.838220 0.886909
v 0.850872 0.136475 0.886909
v 0.850872 1.838220 0.886909
v -1.000000 1.810458 -0.823111
v -1.000000 0.164237 -0.823111
v 1.000000 -0.012652 -1.000000
v 1.000000 1.987348 -1.000000
v -0.843967 0.143381 -0.927101
v -0.843967 1.831314 -0.927101
v 0.843967 1.831314 -0.927101
v 0.843967 0.143381 -0.927101
v -1.000000 -0.012652 -1.000000
v -1.000000 -0.012652 1.000000
v -1.000000 1.987348 1.000000
v -1.000000 1.987348 -1.000000
v -0.896803 0.164237 0.823111
v -0.896803 1.810458 0.823111
v -0.896803 1.810458 -0.823111
v -0.896803 0.164237 -0.823111
vt 0.484771 0.029493
vt 0.484771 0.235271
vt 0.484771 0.235271
vt 0.484771 0.029493
vt 0.487378 0.487878
vt 0.276387 0.487878
vt 0.276387 0.487878
vt 0.487378 0.487878
vt 0.485975 0.528290
vt 0.485975 0.736475
vt 0.485975 0.736475
vt 0.485975 0.528290
vt 0.275523 0.776023
vt 0.488241 0.776023
vt 0.488241 0.776023
vt 0.275523 0.776023
vt 0.006882 0.507382
vt 0.256882 0.507382
vt 0.256882 0.757382
vt 0.006882 0.757382
vt 0.730601 0.533664
vt 0.730601 0.731101
vt 0.730601 0.731101
vt 0.730601 0.533664
vt 0.756882 0.507382
vt 0.756882 0.757382
vt 0.533164 0.533664
vt 0.506882 0.507382
vt 0.533164 0.731101
vt 0.506882 0.757382
vt 0.789086 0.787125
vt 0.986522 0.787125
vt 0.986522 0.984561
vt 0.789086 0.984561
vt 0.533164 0.731101
vt 0.533164 0.533664
vt 0.277790 0.528290
vt 0.277790 0.736475
vt 0.782251 0.009065
vt 0.990435 0.009065
vt 0.990435 0.217249
vt 0.782251 0.217250
vt 0.277790 0.528290
vt 0.277790 0.736475
vt 0.275523 0.988741
vt 0.488241 0.988741
vt 0.506882 1.007382
vt 0.256882 1.007382
vt 0.777523 0.254337
vt 0.990241 0.254337
vt 0.990241 0.467055
vt 0.777523 0.467055
vt 0.275523 0.988741
vt 0.488241 0.988741
vt 0.487378 0.276886
vt 0.276387 0.276887
vt 0.256882 0.257382
vt 0.506882 0.257382
vt 0.775926 0.520504
vt 0.986917 0.520504
vt 0.986917 0.731496
vt 0.775926 0.731496
vt 0.276387 0.276887
vt 0.487378 0.276886
vt 0.278994 0.029493
vt 0.278994 0.235271
vt 0.256882 0.007382
vt 0.506882 0.007382
vt 0.529993 0.027033
vt 0.735771 0.027033
vt 0.735771 0.232810
vt 0.529993 0.232810
vt 0.278994 0.029493
vt 0.278994 0.235271
vn 0.0000 -1.0000 0.0000
vn -1.0000 0.0000 0.0000
vn 1.0000 0.0000 0.0000
vn 0.0000 1.0000 0.0000
vn 0.0000 0.0000 -1.0000
vn 0.0000 0.0000 1.0000
s off
f 26/1/1 33/2/1 47/3/1 46/4/1
f 17/5/2 18/6/2 40/7/2 39/8/2
f 11/9/1 12/10/1 24/11/1 23/12/1
f 19/13/2 20/14/2 32/15/2 31/16/2
f 41/17/1 35/18/1 28/19/1 42/20/1
f 4/21/3 2/22/3 13/23/3 14/24/3
f 2/22/4 4/21/4 44/25/4 43/26/4
f 4/21/4 8/27/4 36/28/4 44/25/4
f 8/27/4 6/29/4 27/30/4 36/28/4
f 6/29/4 2/22/4 43/26/4 27/30/4
f 16/31/4 14/32/4 13/33/4 15/34/4
f 2/22/5 6/29/5 15/35/5 13/23/5
f 8/27/6 4/21/6 14/24/6 16/36/6
f 6/29/2 8/27/2 16/36/2 15/35/2
f 11/9/3 7/37/3 35/18/3 36/28/3
f 7/37/3 5/38/3 28/19/3 35/18/3
f 12/10/3 11/9/3 36/28/3 27/30/3
f 5/38/3 12/10/3 27/30/3 28/19/3
f 22/39/3 23/40/3 24/41/3 21/42/3
f 7/37/6 11/9/6 23/12/6 22/43/6
f 12/10/5 5/38/5 21/44/5 24/11/5
f 5/38/4 7/37/4 22/43/4 21/44/4
f 1/45/6 9/46/6 43/47/6 42/48/6
f 20/14/6 19/13/6 28/19/6 27/30/6
f 19/13/6 1/45/6 42/48/6 28/19/6
f 9/46/6 20/14/6 27/30/6 43/47/6
f 31/49/6 32/50/6 30/51/6 29/52/6
f 1/45/4 19/13/4 31/16/4 29/53/4
f 9/46/3 1/45/3 29/53/3 30/54/3
f 20/14/1 9/46/1 30/54/1 32/15/1
f 10/55/5 3/56/5 41/57/5 44/58/5
f 3/56/5 18/6/5 35/18/5 41/57/5
f 17/5/5 10/55/5 44/58/5 36/28/5
f 18/6/5 17/5/5 36/28/5 35/18/5
f 37/59/5 38/60/5 39/61/5 40/62/5
f 18/6/4 3/56/4 37/63/4 40/7/4
f 10/55/1 17/5/1 39/8/1 38/64/1
f 3/56/3 10/55/3 38/64/3 37/63/3
f 25/65/2 34/66/2 41/57/2 42/67/2
f 26/1/2 25/65/2 42/67/2 43/68/2
f 33/2/2 26/1/2 43/68/2 44/58/2
f 34/66/2 33/2/2 44/58/2 41/57/2
f 45/69/2 46/70/2 47/71/2 48/72/2
f 34/66/4 25/65/4 45/73/4 48/74/4
f 33/2/6 34/66/6 48/74/6 47/3/6
f 25/65/5 26/1/5 46/4/5 45/73/5
