# Blender v2.81 (sub 16) OBJ File: 'GGJ.blend'
# www.blender.org
g Coin_Cylinder
v -0.000000 1.868449 -0.150000
v 0.510461 1.702590 -0.150000
v 0.825944 1.268365 -0.150000
v 0.825944 0.731635 -0.150000
v 0.510461 0.297410 -0.150000
v -0.000000 0.131551 -0.150000
v -0.510461 0.297410 -0.150000
v -0.825944 0.731634 -0.150000
v -0.825944 1.268366 -0.150000
v -0.510461 1.702590 -0.150000
v 0.000000 2.000000 -0.150000
v 0.587785 1.809017 -0.150000
v 0.951057 1.309017 -0.150000
v 0.951056 0.690983 -0.150000
v 0.587785 0.190983 -0.150000
v -0.000000 0.000000 -0.150000
v -0.587785 0.190983 -0.150000
v -0.951056 0.690983 -0.150000
v -0.951056 1.309017 -0.150000
v -0.587785 1.809017 -0.150000
v -0.000000 1.868449 -0.100000
v 0.510461 1.702590 -0.100000
v 0.825944 1.268365 -0.100000
v 0.825944 0.731635 -0.100000
v 0.510461 0.297410 -0.100000
v -0.000000 0.131551 -0.100000
v -0.510461 0.297410 -0.100000
v -0.825944 0.731634 -0.100000
v -0.825944 1.268366 -0.100000
v -0.510461 1.702590 -0.100000
v -0.000000 1.868449 0.150000
v 0.510461 1.702590 0.150000
v 0.825944 1.268365 0.150000
v 0.825944 0.731635 0.150000
v 0.510461 0.297410 0.150000
v -0.000000 0.131551 0.150000
v -0.510461 0.297410 0.150000
v -0.825944 0.731634 0.150000
v -0.825944 1.268366 0.150000
v -0.510461 1.702590 0.150000
v 0.000000 2.000000 0.150000
v 0.587785 1.809017 0.150000
v 0.951057 1.309017 0.150000
v 0.951056 0.690983 0.150000
v 0.587785 0.190983 0.150000
v -0.000000 0.000000 0.150000
v -0.587785 0.190983 0.150000
v -0.951056 0.690983 0.150000
v -0.951056 1.309017 0.150000
v -0.587785 1.809017 0.150000
v -0.000000 1.868449 0.100000
v 0.510461 1.702590 0.100000
v 0.825944 1.268365 0.100000
v 0.825944 0.731635 0.100000
v 0.510461 0.297410 0.100000
v -0.000000 0.131551 0.100000
v -0.510461 0.297410 0.100000
v -0.825944 0.731634 0.100000
v -0.825944 1.268366 0.100000
v -0.510461 1.702590 0.100000
v 0.000000 2.000000 0.000000
v 0.587785 1.809017 0.000000
v 0.951057 1.309017 0.000000
v 0.951056 0.690983 -0.000000
v 0.587785 0.190983 -0.000000
v -0.000000 0.000000 -0.000000
v -0.587785 0.190983 -0.000000
v -0.951056 0.690983 -0.000000
v -0.951056 1.309017 0.000000
v -0.587785 1.809017 0.000000
vt 0.551773 0.314408
vt 0.627489 0.418622
vt 0.627489 0.418622
vt 0.551773 0.314408
vt 0.872511 0.418622
vt 0.750000 0.458428
vt 0.750000 0.490000
vt 0.891068 0.444164
vt 0.948227 0.314408
vt 0.978254 0.324164
vt 0.948226 0.185592
vt 0.978254 0.175836
vt 0.872511 0.081378
vt 0.891068 0.055836
vt 0.750000 0.041572
vt 0.750000 0.010000
vt 0.627489 0.081378
vt 0.608932 0.055836
vt 0.551773 0.185592
vt 0.521746 0.175836
vt 0.521746 0.324164
vt 0.608932 0.444164
vt 0.250000 0.458428
vt 0.372511 0.418622
vt 0.448227 0.314408
vt 0.448226 0.185592
vt 0.372511 0.081378
vt 0.250000 0.041572
vt 0.127489 0.081378
vt 0.051773 0.185592
vt 0.051773 0.314408
vt 0.127489 0.418622
vt 0.627489 0.081378
vt 0.750000 0.041572
vt 0.948226 0.185592
vt 0.948227 0.314408
vt 0.750000 0.458428
vt 0.551773 0.185592
vt 0.872511 0.081378
vt 0.872511 0.418622
vt 0.100000 0.500000
vt 0.100000 0.750000
vt -0.000000 0.750000
vt -0.000000 0.500000
vt 0.200000 0.500000
vt 0.200000 0.750000
vt 0.300000 0.500000
vt 0.300000 0.750000
vt 0.400000 0.500000
vt 0.400000 0.750000
vt 0.500000 0.500000
vt 0.500000 0.750000
vt 0.600000 0.500000
vt 0.600000 0.750000
vt 0.700000 0.500000
vt 0.700000 0.750000
vt 0.800000 0.500000
vt 0.800000 0.750000
vt 0.900000 0.500000
vt 0.900000 0.750000
vt 1.000000 0.500000
vt 1.000000 0.750000
vt 0.551773 0.314408
vt 0.551773 0.314408
vt 0.627489 0.418622
vt 0.627489 0.418622
vt 0.872511 0.418622
vt 0.891068 0.444164
vt 0.750000 0.490000
vt 0.750000 0.458428
vt 0.948227 0.314408
vt 0.978254 0.324164
vt 0.948226 0.185592
vt 0.978254 0.175836
vt 0.872511 0.081378
vt 0.891068 0.055836
vt 0.750000 0.041572
vt 0.750000 0.010000
vt 0.627489 0.081378
vt 0.608932 0.055836
vt 0.551773 0.185592
vt 0.521746 0.175836
vt 0.521746 0.324164
vt 0.608932 0.444164
vt 0.250000 0.458428
vt 0.127489 0.418622
vt 0.051773 0.314408
vt 0.051773 0.185592
vt 0.127489 0.081378
vt 0.250000 0.041572
vt 0.372511 0.081378
vt 0.448226 0.185592
vt 0.448227 0.314408
vt 0.372511 0.418622
vt 0.750000 0.041572
vt 0.627489 0.081378
vt 0.948227 0.314408
vt 0.948226 0.185592
vt 0.750000 0.458428
vt 0.551773 0.185592
vt 0.872511 0.081378
vt 0.872511 0.418622
vt 0.100000 0.500000
vt -0.000000 0.500000
vt 0.200000 0.500000
vt 0.300000 0.500000
vt 0.400000 0.500000
vt 0.500000 0.500000
vt 0.600000 0.500000
vt 0.700000 0.500000
vt 0.800000 0.500000
vt 0.900000 0.500000
vt 1.000000 0.500000
vn 0.8090 -0.5878 0.0000
vn -0.0000 0.0000 -1.0000
vn 0.3090 0.9511 0.0000
vn -1.0000 0.0000 0.0000
vn 0.3090 -0.9511 0.0000
vn 0.8090 0.5878 0.0000
vn -0.8090 0.5878 0.0000
vn -0.3090 -0.9511 0.0000
vn 1.0000 0.0000 0.0000
vn -0.3090 0.9511 0.0000
vn -0.8090 -0.5878 0.0000
vn 0.0000 -0.0000 1.0000
s off
f 9/1/1 10/2/1 30/3/1 29/4/1
f 2/5/2 1/6/2 11/7/2 12/8/2
f 3/9/2 2/5/2 12/8/2 13/10/2
f 4/11/2 3/9/2 13/10/2 14/12/2
f 5/13/2 4/11/2 14/12/2 15/14/2
f 6/15/2 5/13/2 15/14/2 16/16/2
f 7/17/2 6/15/2 16/16/2 17/18/2
f 8/19/2 7/17/2 17/18/2 18/20/2
f 9/1/2 8/19/2 18/20/2 19/21/2
f 10/2/2 9/1/2 19/21/2 20/22/2
f 1/6/2 10/2/2 20/22/2 11/7/2
f 21/23/2 22/24/2 23/25/2 24/26/2 25/27/2 26/28/2 27/29/2 28/30/2 29/31/2 30/32/2
f 6/15/3 7/17/3 27/33/3 26/34/3
f 3/9/4 4/11/4 24/35/4 23/36/4
f 10/2/5 1/6/5 21/37/5 30/3/5
f 7/17/6 8/19/6 28/38/6 27/33/6
f 4/11/7 5/13/7 25/39/7 24/35/7
f 1/6/8 2/5/8 22/40/8 21/37/8
f 8/19/9 9/1/9 29/4/9 28/38/9
f 5/13/10 6/15/10 26/34/10 25/39/10
f 2/5/11 3/9/11 23/36/11 22/40/11
f 20/41/10 70/42/10 61/43/10 11/44/10
f 19/45/7 69/46/7 70/42/7 20/41/7
f 18/47/4 68/48/4 69/46/4 19/45/4
f 17/49/11 67/50/11 68/48/11 18/47/11
f 16/51/8 66/52/8 67/50/8 17/49/8
f 15/53/5 65/54/5 66/52/5 16/51/5
f 14/55/1 64/56/1 65/54/1 15/53/1
f 13/57/9 63/58/9 64/56/9 14/55/9
f 12/59/6 62/60/6 63/58/6 13/57/6
f 11/61/3 61/62/3 62/60/3 12/59/3
f 39/63/1 59/64/1 60/65/1 40/66/1
f 32/67/12 42/68/12 41/69/12 31/70/12
f 33/71/12 43/72/12 42/68/12 32/67/12
f 34/73/12 44/74/12 43/72/12 33/71/12
f 35/75/12 45/76/12 44/74/12 34/73/12
f 36/77/12 46/78/12 45/76/12 35/75/12
f 37/79/12 47/80/12 46/78/12 36/77/12
f 38/81/12 48/82/12 47/80/12 37/79/12
f 39/63/12 49/83/12 48/82/12 38/81/12
f 40/66/12 50/84/12 49/83/12 39/63/12
f 31/70/12 41/69/12 50/84/12 40/66/12
f 51/85/12 60/86/12 59/87/12 58/88/12 57/89/12 56/90/12 55/91/12 54/92/12 53/93/12 52/94/12
f 36/77/3 56/95/3 57/96/3 37/79/3
f 33/71/4 53/97/4 54/98/4 34/73/4
f 40/66/5 60/65/5 51/99/5 31/70/5
f 37/79/6 57/96/6 58/100/6 38/81/6
f 34/73/7 54/98/7 55/101/7 35/75/7
f 31/70/8 51/99/8 52/102/8 32/67/8
f 38/81/9 58/100/9 59/64/9 39/63/9
f 35/75/10 55/101/10 56/95/10 36/77/10
f 32/67/11 52/102/11 53/97/11 33/71/11
f 50/103/10 41/104/10 61/43/10 70/42/10
f 49/105/7 50/103/7 70/42/7 69/46/7
f 48/106/4 49/105/4 69/46/4 68/48/4
f 47/107/11 48/106/11 68/48/11 67/50/11
f 46/108/8 47/107/8 67/50/8 66/52/8
f 45/109/5 46/108/5 66/52/5 65/54/5
f 44/110/1 45/109/1 65/54/1 64/56/1
f 43/111/9 44/110/9 64/56/9 63/58/9
f 42/112/6 43/111/6 63/58/6 62/60/6
f 41/113/3 42/112/3 62/60/3 61/62/3
