# Blender v2.81 (sub 16) OBJ File: 'Hole.blend'
# www.blender.org
g Cube
v -3.000000 -0.500000 3.000000
v -2.796419 0.644720 2.796419
v -3.000000 -0.500000 -3.000000
v -2.796419 0.644720 -2.796419
v 3.000000 -0.500000 3.000000
v 2.796419 0.644720 2.796419
v 3.000000 -0.500000 -3.000000
v 2.796419 0.644720 -2.796419
v -3.000000 0.500000 3.000000
v -3.000000 0.500000 -3.000000
v 3.000000 0.500000 -3.000000
v 3.000000 0.500000 3.000000
v -1.836489 0.644720 -1.760824
v -0.885476 0.644720 -1.161271
v 0.313632 0.644720 -2.360376
v 0.603071 0.644720 -1.037226
v 2.194986 0.644720 -1.760824
v 1.781500 0.644720 -0.479022
v 2.319029 0.644720 1.485029
v 1.388690 0.644720 1.133568
v 1.099251 0.644720 2.518740
v -0.203224 0.644720 1.340310
v -1.774467 0.644720 2.311998
v -1.174914 0.644720 0.823454
v -2.208625 0.644720 0.017159
v -1.360983 0.644720 -0.727113
v -2.796419 0.644720 -2.796419
v 2.796419 0.644720 -2.796419
v -1.836489 -0.182249 -1.760824
v -0.885476 -0.182249 -1.161271
v 0.313632 -0.182249 -2.360376
v 0.603071 -0.182249 -1.037226
v 2.194986 -0.182249 -1.760824
v 1.781500 -0.182249 -0.479022
v 2.319029 -0.182249 1.485029
v 1.388690 -0.182249 1.133568
v 1.099251 -0.182249 2.518740
v -0.203224 -0.182249 1.340310
v -1.774467 -0.182249 2.311998
v -1.174914 -0.182249 0.823454
v -2.208625 -0.182249 0.017159
v -1.360983 -0.182249 -0.727113
v -1.836489 -0.182249 -1.760824
v -0.885476 -0.182249 -1.161271
v 0.313632 -0.182249 -2.360376
v 0.603071 -0.182249 -1.037226
v 2.194986 -0.182249 -1.760824
v 1.781500 -0.182249 -0.479022
v 2.319029 -0.182249 1.485029
v 1.388690 -0.182249 1.133568
v 1.099251 -0.182249 2.518740
v -0.203224 -0.182249 1.340310
v -1.774467 -0.182249 2.311998
v -1.174914 -0.182249 0.823454
v -2.208625 -0.182249 0.017159
v -1.360983 -0.182249 -0.727113
vt 0.375000 0.000000
vt 0.625000 0.000000
vt 0.625000 0.250000
vt 0.375000 0.250000
vt 0.625000 0.500000
vt 0.375000 0.500000
vt 0.625000 0.750000
vt 0.375000 0.750000
vt 0.625000 1.000000
vt 0.375000 1.000000
vt 0.633483 0.508483
vt 0.866517 0.508483
vt 0.866517 0.741517
vt 0.842026 0.625715
vt 0.806708 0.594704
vt 0.826520 0.551632
vt 0.786895 0.576614
vt 0.736932 0.526651
vt 0.724872 0.581782
vt 0.658542 0.551632
vt 0.675771 0.605041
vt 0.653374 0.686876
vt 0.633483 0.741517
vt 0.875000 0.500000
vt 0.875000 0.750000
vt 0.692138 0.672232
vt 0.704198 0.729947
vt 0.758468 0.680846
vt 0.823936 0.721333
vt 0.798955 0.659311
vt 0.653374 0.686876
vt 0.692138 0.672232
vt 0.806708 0.594704
vt 0.826520 0.551632
vt 0.633483 0.508483
vt 0.866517 0.508483
vt 0.675771 0.605041
vt 0.842026 0.625715
vt 0.658542 0.551632
vt 0.798955 0.659311
vt 0.724872 0.581782
vt 0.823936 0.721333
vt 0.736932 0.526651
vt 0.758468 0.680846
vt 0.786895 0.576614
vt 0.704198 0.729947
vt 0.798955 0.659311
vt 0.823936 0.721333
vt 0.758468 0.680846
vt 0.704198 0.729947
vt 0.692138 0.672232
vt 0.653374 0.686876
vt 0.675771 0.605041
vt 0.658542 0.551632
vt 0.724872 0.581782
vt 0.736932 0.526651
vt 0.786895 0.576614
vt 0.826520 0.551632
vt 0.806708 0.594704
vt 0.842026 0.625715
vn -1.0000 0.0000 0.0000
vn 0.0000 0.0000 -1.0000
vn 1.0000 0.0000 0.0000
vn 0.0000 0.0000 1.0000
vn 0.0000 1.0000 -0.0000
vn -0.5794 0.8150 0.0000
vn 0.0000 0.8150 -0.5794
vn 0.5794 0.8150 0.0000
vn 0.0000 0.8150 0.5794
vn 0.3534 0.0000 -0.9355
vn 0.9085 0.0000 -0.4179
vn -0.9645 0.0000 0.2640
vn 0.6598 0.0000 0.7514
vn -0.9517 0.0000 -0.3070
vn 0.6150 0.0000 -0.7885
vn 0.4138 0.0000 0.9104
vn 0.9276 0.0000 0.3736
vn -0.9769 0.0000 0.2137
vn -0.5260 0.0000 -0.8505
vn 0.7071 0.0000 0.7071
vn 0.6709 0.0000 -0.7415
vn -0.5333 0.0000 0.8459
vn -0.9789 0.0000 -0.2045
s off
f 1/1/1 9/2/1 10/3/1 3/4/1
f 3/4/2 10/3/2 11/5/2 7/6/2
f 7/6/3 11/5/3 12/7/3 5/8/3
f 5/8/4 12/7/4 9/9/4 1/10/4
f 8/11/5 4/12/5 2/13/5 25/14/5 26/15/5 13/16/5 14/17/5 15/18/5 16/19/5 17/20/5 18/21/5 19/22/5 6/23/5
f 2/13/6 4/12/6 10/24/6 9/25/6
f 4/12/7 8/11/7 11/5/7 10/24/7
f 8/11/8 6/23/8 12/7/8 11/5/8
f 6/23/9 2/13/9 9/25/9 12/7/9
f 6/23/5 19/22/5 20/26/5 21/27/5 22/28/5 23/29/5 24/30/5 25/14/5 2/13/5
f 20/26/10 19/22/10 35/31/10 36/32/10
f 13/16/11 26/15/11 42/33/11 29/34/11
f 4/12/4 8/11/4 28/35/4 27/36/4
f 19/22/12 18/21/12 34/37/12 35/31/12
f 26/15/13 25/14/13 41/38/13 42/33/13
f 18/21/14 17/20/14 33/39/14 34/37/14
f 25/14/15 24/30/15 40/40/15 41/38/15
f 17/20/16 16/19/16 32/41/16 33/39/16
f 24/30/17 23/29/17 39/42/17 40/40/17
f 16/19/18 15/18/18 31/43/18 32/41/18
f 23/29/19 22/28/19 38/44/19 39/42/19
f 15/18/20 14/17/20 30/45/20 31/43/20
f 22/28/21 21/27/21 37/46/21 38/44/21
f 14/17/22 13/16/22 29/34/22 30/45/22
f 21/27/23 20/26/23 36/32/23 37/46/23
f 54/47/5 53/48/5 52/49/5 51/50/5 50/51/5 49/52/5 48/53/5 47/54/5 46/55/5 45/56/5 44/57/5 43/58/5 56/59/5 55/60/5
f 37/46/4 36/32/4 50/51/4 51/50/4
f 30/45/4 29/34/4 43/58/4 44/57/4
f 38/44/4 37/46/4 51/50/4 52/49/4
f 31/43/4 30/45/4 44/57/4 45/56/4
f 39/42/4 38/44/4 52/49/4 53/48/4
f 32/41/4 31/43/4 45/56/4 46/55/4
f 40/40/4 39/42/4 53/48/4 54/47/4
f 33/39/4 32/41/4 46/55/4 47/54/4
f 41/38/4 40/40/4 54/47/4 55/60/4
f 34/37/4 33/39/4 47/54/4 48/53/4
f 42/33/4 41/38/4 55/60/4 56/59/4
f 35/31/4 34/37/4 48/53/4 49/52/4
f 29/34/4 42/33/4 56/59/4 43/58/4
f 36/32/4 35/31/4 49/52/4 50/51/4
