# Blender v2.81 (sub 16) OBJ File: 'GGJ.blend'
# www.blender.org
g Player_Cube.003
v -0.535131 0.440253 0.058470
v -0.535131 0.440253 0.763194
v -0.535131 2.369238 0.058470
v -0.535131 2.369238 0.763194
v 0.535131 0.440253 0.058470
v 0.535131 0.440253 0.763194
v 0.535131 2.369238 0.058470
v 0.535131 2.369238 0.763194
v -0.383916 0.054456 0.158039
v -0.383916 0.054456 0.663625
v 0.383916 0.054456 0.158039
v 0.383916 0.054456 0.663625
v -0.383916 0.054456 0.158039
v -0.383916 0.054456 0.663625
v 0.383916 0.054456 0.158039
v 0.383916 0.054456 0.663625
v -1.629063 9.225876 -1.909895
v -1.629063 6.565627 -1.909895
v 1.629063 9.225875 -1.909895
v 1.629063 6.565627 -1.909895
v 0.000000 9.491899 -0.280832
v 1.629063 9.225875 1.348231
v 1.629063 6.565627 1.348231
v -1.629063 9.225875 1.348231
v -1.629063 6.565627 1.348230
v 0.000000 5.235503 -0.280832
v -1.330124 2.176217 1.049292
v -1.330124 6.166590 1.049292
v -1.330124 2.176217 -1.610956
v -1.330124 6.166590 -1.610956
v 1.330124 2.176217 1.049292
v 1.330124 6.166590 1.049292
v 1.330124 2.176217 -1.610956
v 1.330124 6.166590 -1.610956
v -0.535131 6.106614 -4.271204
v -0.535131 5.428492 -4.271204
v -0.535131 6.106614 -1.610956
v -0.535131 5.428492 -1.610956
v 0.535131 6.106614 -4.271204
v 0.535131 5.428492 -4.271204
v 0.535131 6.106614 -1.610956
v 0.535131 5.428492 -1.610956
v -0.383916 6.010803 -4.803255
v -0.383916 5.524302 -4.803255
v 0.383916 6.010803 -4.803255
v 0.383916 5.524302 -4.803255
v -0.383916 6.010803 -4.803255
v -0.383916 5.524302 -4.803255
v 0.383916 6.010803 -4.803255
v 0.383916 5.524302 -4.803255
v -0.535131 5.428492 3.709540
v -0.535131 6.106614 3.709540
v -0.535131 5.428492 1.049292
v -0.535131 6.106614 1.049292
v 0.535131 5.428492 3.709540
v 0.535131 6.106614 3.709540
v 0.535131 5.428492 1.049292
v 0.535131 6.106614 1.049292
v -0.383916 5.524302 4.241590
v -0.383916 6.010803 4.241590
v 0.383916 5.524302 4.241590
v 0.383916 6.010803 4.241590
v -0.383916 5.524302 4.241590
v -0.383916 6.010803 4.241590
v 0.383916 5.524302 4.241590
v 0.383916 6.010803 4.241590
v -0.535131 0.449802 -1.311558
v -0.535131 0.449802 -0.633436
v -0.535131 2.359689 -1.311558
v -0.535131 2.359689 -0.633436
v 0.535131 0.449802 -1.311558
v 0.535131 0.449802 -0.633436
v 0.535131 2.359689 -1.311558
v 0.535131 2.359689 -0.633436
v -0.383916 0.067825 -1.215747
v -0.383916 0.067825 -0.729246
v 0.383916 0.067825 -1.215747
v 0.383916 0.067825 -0.729246
v -0.383916 0.067825 -1.215747
v -0.383916 0.067825 -0.729246
v 0.383916 0.067825 -1.215747
v 0.383916 0.067825 -0.729246
v -0.895689 9.225876 1.049292
v -0.895689 9.491900 2.369379
v -0.895689 9.225876 -1.610957
v -0.895689 9.491900 -2.931043
v 0.895689 9.225876 1.049292
v 0.895689 9.491900 2.369379
v 0.895689 9.225876 -1.610957
v 0.895689 9.491900 -2.931043
v -0.554201 9.704720 1.593455
v -0.554201 9.704720 -2.155120
v 0.554201 9.704720 1.593455
v 0.554201 9.704720 -2.155120
v -0.895689 9.704720 2.369379
v -0.895689 9.704720 -2.931043
v 0.895689 9.704720 -2.931043
v 0.895689 9.704720 2.369379
v -0.554201 10.236770 0.801629
v -0.554201 10.236770 -1.363293
v 0.554201 10.236770 0.801629
v 0.554201 10.236770 -1.363293
v -0.257734 11.300869 0.046142
v -0.257734 11.300869 -0.607806
v 0.257734 11.300869 0.046142
v 0.257734 11.300869 -0.607806
vt 0.109493 0.314745
vt 0.140507 0.314745
vt 0.140507 0.345758
vt 0.109493 0.345758
vt 0.454259 0.697531
vt 0.545741 0.697531
vt 0.545741 0.789012
vt 0.454259 0.789012
vt 0.109493 0.376772
vt 0.140507 0.376772
vt 0.140507 0.407786
vt 0.109493 0.407786
vt 0.078479 0.376772
vt 0.078479 0.407786
vt 0.171521 0.376772
vt 0.171521 0.407786
vt 0.882538 0.474282
vt 0.867462 0.474282
vt 0.867462 0.474282
vt 0.882538 0.474282
vt 0.852387 0.474282
vt 0.852387 0.474282
vt 0.897613 0.474282
vt 0.897613 0.474282
vt 0.867462 0.519507
vt 0.882538 0.519507
vt 0.882538 0.519507
vt 0.867462 0.519507
vt 0.513735 0.445061
vt 0.454259 0.606049
vt 0.486265 0.445061
vt 0.513735 0.445061
vt 0.882538 0.474282
vt 0.867462 0.474282
vt 0.867462 0.459207
vt 0.882538 0.459207
vt 0.362777 0.880494
vt 0.454259 0.880494
vt 0.454259 0.880494
vt 0.362777 0.880494
vt 0.545741 0.880494
vt 0.637223 0.880494
vt 0.637223 0.880494
vt 0.545741 0.880494
vt 0.654191 0.008236
vt 0.683382 0.086079
vt 0.625000 0.086079
vt 0.683382 0.163921
vt 0.625000 0.163921
vt 0.654191 0.241764
vt 0.595809 0.008236
vt 0.566618 0.086079
vt 0.937500 0.023354
vt 0.937500 0.226646
vt 0.785030 0.226646
vt 0.785030 0.023354
vt 0.595809 0.241764
vt 0.566618 0.163921
vt 0.537427 0.008236
vt 0.508236 0.086079
vt 0.508236 0.163921
vt 0.537427 0.241764
vt 0.712573 0.008236
vt 0.741764 0.086079
vt 0.741764 0.163921
vt 0.712573 0.241764
vt 0.050690 0.109608
vt 0.051969 0.010273
vt 0.151305 0.011553
vt 0.150025 0.110888
vt 0.250640 0.012832
vt 0.249360 0.112168
vt 0.349975 0.014112
vt 0.348695 0.113447
vt 0.449310 0.015392
vt 0.448031 0.114727
vt 0.057371 0.157858
vt 0.144124 0.157858
vt 0.144124 0.244611
vt 0.057371 0.244611
vt 0.230876 0.157858
vt 0.317629 0.157858
vt 0.317629 0.244611
vt 0.230876 0.244611
vt 0.423765 0.382561
vt 0.513735 0.445061
vt 0.545741 0.622530
vt 0.454259 0.622530
vt 0.545741 0.789012
vt 0.454259 0.789012
vt 0.545741 0.880494
vt 0.454259 0.880494
vt 0.362777 0.789012
vt 0.362777 0.880494
vt 0.637223 0.789012
vt 0.637223 0.880494
vt 0.871063 0.389801
vt 0.878937 0.389801
vt 0.878937 0.389801
vt 0.871063 0.389801
vt 0.886810 0.389801
vt 0.886810 0.389801
vt 0.863190 0.389801
vt 0.863190 0.389801
vt 0.878937 0.366181
vt 0.871063 0.366181
vt 0.871063 0.366181
vt 0.878937 0.366181
vt 0.513735 0.445061
vt 0.486265 0.445061
vt 0.486265 0.445061
vt 0.576235 0.382561
vt 0.871063 0.389801
vt 0.878937 0.389801
vt 0.878937 0.397674
vt 0.871063 0.397674
vt 0.362777 0.880494
vt 0.454259 0.880494
vt 0.454259 0.880494
vt 0.362777 0.880494
vt 0.545741 0.880494
vt 0.637223 0.880494
vt 0.637223 0.880494
vt 0.545741 0.880494
vt 0.195561 0.260448
vt 0.241939 0.260448
vt 0.241939 0.306826
vt 0.195561 0.306826
vt 0.454259 0.622530
vt 0.545741 0.622530
vt 0.545741 0.789012
vt 0.454259 0.789012
vt 0.101811 0.259454
vt 0.148189 0.259454
vt 0.148189 0.305833
vt 0.101811 0.305833
vt 0.055432 0.259454
vt 0.055432 0.305833
vt 0.194568 0.259454
vt 0.194568 0.305833
vt 0.870073 0.284354
vt 0.879927 0.284354
vt 0.879927 0.284354
vt 0.870073 0.284354
vt 0.889782 0.284354
vt 0.889782 0.284354
vt 0.860218 0.284354
vt 0.860218 0.284354
vt 0.879927 0.254789
vt 0.870073 0.254789
vt 0.870073 0.254789
vt 0.879927 0.254789
vt 0.513735 0.445061
vt 0.486265 0.382561
vt 0.486265 0.445061
vt 0.576235 0.382561
vt 0.870073 0.284354
vt 0.879927 0.284354
vt 0.879927 0.294208
vt 0.870073 0.294208
vt 0.362777 0.880494
vt 0.454259 0.880494
vt 0.454259 0.880494
vt 0.362777 0.880494
vt 0.545741 0.880494
vt 0.637223 0.880494
vt 0.637223 0.880494
vt 0.545741 0.880494
vt 0.109493 0.314745
vt 0.140507 0.314745
vt 0.140507 0.345758
vt 0.109493 0.345758
vt 0.454259 0.622530
vt 0.545741 0.622530
vt 0.545741 0.789012
vt 0.454259 0.789012
vt 0.109493 0.376772
vt 0.140507 0.376772
vt 0.140507 0.407786
vt 0.109493 0.407786
vt 0.078479 0.376772
vt 0.078479 0.407786
vt 0.171521 0.376772
vt 0.171521 0.407786
vt 0.882538 0.474282
vt 0.867462 0.474282
vt 0.867462 0.474282
vt 0.882538 0.474282
vt 0.852387 0.474282
vt 0.852387 0.474282
vt 0.897613 0.474282
vt 0.897613 0.474282
vt 0.867462 0.519507
vt 0.882538 0.519507
vt 0.882538 0.519507
vt 0.867462 0.519507
vt 0.513735 0.445061
vt 0.423765 0.382561
vt 0.486265 0.445061
vt 0.545741 0.606049
vt 0.882538 0.474282
vt 0.867462 0.474282
vt 0.867462 0.459207
vt 0.882538 0.459207
vt 0.362777 0.880494
vt 0.454259 0.880494
vt 0.454259 0.880494
vt 0.362777 0.880494
vt 0.545741 0.880494
vt 0.637223 0.880494
vt 0.637223 0.880494
vt 0.545741 0.880494
vt 0.095755 0.802692
vt 0.131909 0.802692
vt 0.131909 0.838846
vt 0.095755 0.838846
vt 0.131909 0.875000
vt 0.095755 0.875000
vt 0.131909 0.911154
vt 0.095755 0.911154
vt 0.131909 0.947308
vt 0.095755 0.947308
vt 0.059601 0.875000
vt 0.059601 0.911154
vt 0.131909 0.802692
vt 0.131909 0.838846
vt 0.142454 0.905862
vt 0.142454 0.880293
vt 0.142454 0.880293
vt 0.142454 0.905862
vt 0.475393 0.839072
vt 0.475393 0.763286
vt 0.475393 0.763286
vt 0.475393 0.839072
vt 0.485236 0.901512
vt 0.485236 0.856041
vt 0.485236 0.856041
vt 0.485236 0.901512
vt 0.131909 0.875000
vt 0.131909 0.911154
vt 0.157518 0.905862
vt 0.157518 0.880293
vt 0.168063 0.875000
vt 0.168063 0.911154
vt 0.157518 0.905862
vt 0.142454 0.905862
vt 0.157518 0.905862
vt 0.157518 0.880293
vt 0.142454 0.880293
vt 0.157518 0.880293
vt 0.261718 0.846230
vt 0.261718 0.820661
vt 0.202086 0.820661
vn -1.0000 -0.0000 0.0000
vn 0.0000 1.0000 0.0000
vn 1.0000 -0.0000 0.0000
vn 0.0000 0.0000 -1.0000
vn 0.0000 -0.0000 1.0000
vn 0.9310 -0.3649 0.0000
vn 0.0000 -0.2499 0.9683
vn 0.0000 -0.2499 -0.9683
vn -0.9310 -0.3649 0.0000
vn 0.0000 -1.0000 0.0000
vn 0.0000 -0.7746 -0.6325
vn 0.0000 0.9869 -0.1612
vn 0.6325 -0.7746 0.0000
vn 0.1612 0.9869 0.0000
vn -0.0000 -0.7746 0.6325
vn -0.0000 0.9869 0.1612
vn -0.6325 -0.7746 0.0000
vn -0.1612 0.9869 0.0000
vn 0.9619 0.0000 -0.2734
vn 0.0000 -0.9842 -0.1772
vn 0.0000 0.9842 -0.1772
vn -0.9619 0.0000 -0.2734
vn 0.9619 0.0000 0.2734
vn 0.0000 0.9842 0.1772
vn 0.0000 -0.9842 0.1772
vn -0.9619 0.0000 0.2734
vn 0.9298 -0.3681 -0.0000
vn 0.0000 -0.2433 0.9700
vn 0.0000 -0.2433 -0.9700
vn -0.9298 -0.3681 -0.0000
vn 0.0000 -0.9803 -0.1975
vn 0.0000 -0.9803 0.1975
vn 0.0000 0.5789 0.8154
vn 0.0000 0.8300 0.5577
vn 0.0000 0.8300 -0.5577
vn 0.0000 0.5789 -0.8154
vn 0.9633 0.2684 0.0000
vn -0.9633 0.2684 0.0000
s off
f 1/1/1 2/2/1 4/3/1 3/4/1
f 3/5/2 4/6/2 8/7/2 7/8/2
f 7/9/3 8/10/3 6/11/3 5/12/3
f 3/13/4 7/9/4 5/12/4 1/14/4
f 8/10/5 4/15/5 2/16/5 6/11/5
f 5/17/6 6/18/6 12/19/6 11/20/6
f 6/18/7 2/21/7 10/22/7 12/19/7
f 1/23/8 5/17/8 11/20/8 9/24/8
f 2/25/9 1/26/9 9/27/9 10/28/9
f 10/29/5 9/30/5 13/31/5 14/32/5
f 15/33/10 16/34/10 14/35/10 13/36/10
f 9/37/5 11/38/5 15/39/5 13/40/5
f 12/41/5 10/42/5 14/43/5 16/44/5
f 11/38/5 12/41/5 16/44/5 15/39/5
f 26/45/11 18/46/11 20/47/11
f 18/46/4 17/48/4 19/49/4 20/47/4
f 17/48/12 21/50/12 19/49/12
f 26/51/13 20/47/13 23/52/13
f 20/53/3 19/54/3 22/55/3 23/56/3
f 19/49/14 21/57/14 22/58/14
f 26/59/15 23/52/15 25/60/15
f 23/52/5 22/58/5 24/61/5 25/60/5
f 22/58/16 21/62/16 24/61/16
f 26/63/17 25/64/17 18/46/17
f 25/64/1 24/65/1 17/48/1 18/46/1
f 24/65/18 21/66/18 17/48/18
f 27/67/1 28/68/1 30/69/1 29/70/1
f 29/70/4 30/69/4 34/71/4 33/72/4
f 33/72/3 34/71/3 32/73/3 31/74/3
f 31/74/5 32/73/5 28/75/5 27/76/5
f 29/77/10 33/78/10 31/79/10 27/80/10
f 34/81/2 30/82/2 28/83/2 32/84/2
f 35/85/1 36/86/1 38/87/1 37/88/1
f 37/88/5 38/87/5 42/89/5 41/90/5
f 41/90/3 42/89/3 40/91/3 39/92/3
f 37/93/2 41/90/2 39/92/2 35/94/2
f 42/89/10 38/95/10 36/96/10 40/91/10
f 39/97/19 40/98/19 46/99/19 45/100/19
f 40/98/20 36/101/20 44/102/20 46/99/20
f 35/103/21 39/97/21 45/100/21 43/104/21
f 36/105/22 35/106/22 43/107/22 44/108/22
f 44/109/5 43/110/5 47/111/5 48/112/5
f 49/113/4 50/114/4 48/115/4 47/116/4
f 43/117/5 45/118/5 49/119/5 47/120/5
f 46/121/5 44/122/5 48/123/5 50/124/5
f 45/118/5 46/121/5 50/124/5 49/119/5
f 51/125/1 52/126/1 54/127/1 53/128/1
f 53/129/4 54/130/4 58/131/4 57/132/4
f 57/133/3 58/134/3 56/135/3 55/136/3
f 53/137/10 57/133/10 55/136/10 51/138/10
f 58/134/2 54/139/2 52/140/2 56/135/2
f 55/141/23 56/142/23 62/143/23 61/144/23
f 56/142/24 52/145/24 60/146/24 62/143/24
f 51/147/25 55/141/25 61/144/25 59/148/25
f 52/149/26 51/150/26 59/151/26 60/152/26
f 60/153/5 59/154/5 63/155/5 64/156/5
f 65/157/5 66/158/5 64/159/5 63/160/5
f 59/161/5 61/162/5 65/163/5 63/164/5
f 62/165/5 60/166/5 64/167/5 66/168/5
f 61/162/5 62/165/5 66/168/5 65/163/5
f 67/169/1 68/170/1 70/171/1 69/172/1
f 69/173/2 70/174/2 74/175/2 73/176/2
f 73/177/3 74/178/3 72/179/3 71/180/3
f 69/181/4 73/177/4 71/180/4 67/182/4
f 74/178/5 70/183/5 68/184/5 72/179/5
f 71/185/27 72/186/27 78/187/27 77/188/27
f 72/186/28 68/189/28 76/190/28 78/187/28
f 67/191/29 71/185/29 77/188/29 75/192/29
f 68/193/30 67/194/30 75/195/30 76/196/30
f 76/197/5 75/198/5 79/199/5 80/200/5
f 81/201/10 82/202/10 80/203/10 79/204/10
f 75/205/5 77/206/5 81/207/5 79/208/5
f 78/209/5 76/210/5 80/211/5 82/212/5
f 77/206/5 78/209/5 82/212/5 81/207/5
f 83/213/1 84/214/1 86/215/1 85/216/1
f 85/216/31 86/215/31 90/217/31 89/218/31
f 89/218/3 90/217/3 88/219/3 87/220/3
f 87/220/32 88/219/32 84/221/32 83/222/32
f 85/223/10 89/218/10 87/220/10 83/224/10
f 86/215/1 84/214/1 95/225/1 96/226/1
f 93/227/3 94/228/3 102/229/3 101/230/3
f 84/231/5 88/232/5 98/233/5 95/234/5
f 90/235/4 86/236/4 96/237/4 97/238/4
f 88/219/3 90/217/3 97/239/3 98/240/3
f 91/241/2 92/242/2 96/243/2 95/244/2
f 92/242/2 94/228/2 97/239/2 96/243/2
f 94/228/2 93/227/2 98/240/2 97/239/2
f 93/227/2 91/241/2 95/244/2 98/240/2
f 99/245/33 101/230/33 105/246/33 103/247/33
f 92/242/1 91/241/1 99/245/1 100/248/1
f 91/241/34 93/227/34 101/230/34 99/245/34
f 94/228/35 92/242/35 100/248/35 102/229/35
f 106/249/2 104/250/2 103/247/2 105/246/2
f 102/229/36 100/248/36 104/250/36 106/249/36
f 101/251/37 102/252/37 106/253/37 105/246/37
f 100/248/38 99/245/38 103/247/38 104/250/38
