# Blender v2.81 (sub 16) OBJ File: 'GGJ.blend'
# www.blender.org
mtllib Shop.mtl
g Floor
v -4.000000 0.015461 4.000000
v -4.000000 2.015461 4.000000
v -4.000000 2.015463 -4.000000
v -4.000000 0.015463 -4.000000
v 4.000000 2.015463 -4.000000
v 4.000000 0.015463 -4.000000
v 4.000000 2.015461 4.000000
v 4.000000 0.015461 4.000000
v 4.000000 2.015461 4.000000
v -4.000000 2.015461 4.000000
v 4.000000 2.015463 -4.000000
v 3.819104 2.188206 -3.819104
v 3.819104 2.188204 3.819104
v -4.000000 2.015463 -4.000000
v -3.819104 2.188206 -3.819104
v -3.819104 2.188204 3.819104
vt 0.622078 0.499539
vt 0.872078 0.499539
vt 0.872078 0.749539
vt 0.622078 0.749539
vt 0.125000 0.250000
vt 0.375000 0.250000
vt 0.375000 0.500000
vt 0.125000 0.500000
vt 0.375000 0.750000
vt 0.125000 0.750000
vt 0.375000 1.000000
vt 0.125000 1.000000
vt 0.375000 0.750000
vt 0.375000 1.000000
vt 0.375000 0.500000
vt 0.375000 0.500000
vt 0.375000 0.750000
vt 0.375000 0.250000
vt 0.405469 0.490832
vt 0.405469 0.240832
vt 0.405469 0.240832
vt 0.405469 0.490832
vt 0.625000 0.500000
vt 0.625000 0.750000
vt 0.626132 0.498619
vt 0.626132 0.748619
vt 0.626132 0.748619
vt 0.626132 0.498619
vt 0.375000 1.000000
vt 0.375000 0.250000
vn -1.0000 -0.0000 0.0000
vn 0.0000 0.0000 -1.0000
vn 1.0000 0.0000 0.0000
vn 0.0000 -0.0000 1.0000
vn 0.0000 0.0000 0.0000
vn 0.6906 0.7232 0.0000
vn 0.0000 1.0000 0.0000
vn -0.6906 0.7232 0.0000
vn 0.0000 0.7232 0.6906
vn 0.0000 0.7232 -0.6906
usemtl Material.001
s 1
f 1/1/1 2/2/1 3/3/1 4/4/1
f 4/5/2 3/6/2 5/7/2 6/8/2
f 6/8/3 5/7/3 7/9/3 8/10/3
f 8/10/4 7/9/5 2/11/5 1/12/4
f 2/11/5 7/9/5 9/13/5 10/14/5
f 9/13/6 11/15/6 12/16/6 13/17/6
f 5/7/5 3/6/5 14/18/5 11/15/5
f 7/9/5 5/7/5 11/15/5 9/13/5
f 3/19/5 2/20/5 10/21/5 14/22/5
f 12/16/7 15/23/7 16/24/7 13/17/7
f 14/25/8 10/26/8 16/27/8 15/28/8
f 10/14/9 9/13/9 13/17/9 16/29/9
f 11/15/10 14/18/10 15/30/10 12/16/10
g ShopBox_Cube
v -4.189001 0.034564 8.378002
v -4.189001 8.412565 8.378002
v -4.189001 0.034564 -8.378002
v -4.189001 8.412565 -8.378002
v 4.189001 0.034564 8.378002
v 4.189001 8.412565 8.378002
v 4.189001 0.034564 -8.378002
v 4.189001 8.412565 -8.378002
vt 0.870806 0.126171
vt 0.870806 0.369597
vt 0.365661 0.369597
vt 0.365661 0.126171
vt 0.082031 0.238281
vt 0.332031 0.238281
vt 0.332031 0.488281
vt 0.082031 0.488281
vt 0.332031 0.738281
vt 0.082031 0.738281
vt 0.332031 0.988281
vt 0.082031 0.988281
vt 0.645171 0.460378
vt 0.895171 0.460378
vt 0.895171 0.897878
vt 0.645171 0.897878
vn -1.0000 0.0000 0.0000
vn 0.0000 0.0000 -1.0000
vn 1.0000 0.0000 0.0000
vn 0.0000 0.0000 1.0000
vn 0.0000 1.0000 0.0000
usemtl Material.005
s off
f 17/31/11 18/32/11 20/33/11 19/34/11
f 19/35/12 20/36/12 24/37/12 23/38/12
f 23/38/13 24/37/13 22/39/13 21/40/13
f 21/40/14 22/39/14 18/41/14 17/42/14
f 24/43/15 20/44/15 18/45/15 22/46/15
