# Blender v2.81 (sub 16) OBJ File: 'GGJ.blend'
# www.blender.org
g Wall_Cube.005
v -1.087431 2.085626 1.250000
v -0.917224 7.036604 1.054348
v -1.087431 2.085626 -1.250000
v -0.917224 7.036604 -1.054348
v 1.087431 2.085626 1.250000
v 0.917224 7.036604 1.054348
v 1.087431 2.085626 -1.250000
v 0.917224 7.036604 -1.054348
v -1.087431 6.836604 1.250000
v -1.087431 6.836604 -1.250000
v 1.087431 6.836604 -1.250000
v 1.087431 6.836604 1.250000
v -1.087431 6.353603 1.250000
v -1.087431 6.353603 -1.250000
v 1.087431 6.353603 -1.250000
v 1.087431 6.353603 1.250000
v -1.087431 5.831869 -1.250000
v 1.087431 5.831869 -1.250000
v 1.087431 5.831869 1.250000
v -1.087431 5.831869 1.250000
v -1.087431 2.085626 3.750000
v -0.917224 7.036604 3.554348
v -1.087431 2.085626 1.250000
v -0.917224 7.036604 1.445652
v 1.087431 2.085626 3.750000
v 0.917224 7.036604 3.554348
v 1.087431 2.085626 1.250000
v 0.917224 7.036604 1.445652
v -1.087431 6.836604 3.750000
v -1.087431 6.836604 1.250000
v 1.087431 6.836604 1.250000
v 1.087431 6.836604 3.750000
v -1.087431 6.353603 3.750000
v -1.087431 6.353603 1.250000
v 1.087431 6.353603 1.250000
v 1.087431 6.353603 3.750000
v -1.087431 5.831869 1.250000
v 1.087431 5.831869 1.250000
v 1.087431 5.831869 3.750000
v -1.087431 5.831869 3.750000
v -1.087431 2.085626 6.250000
v -0.917224 7.036604 6.054348
v -1.087431 2.085626 3.750000
v -0.917224 7.036604 3.945652
v 1.087431 2.085626 6.250000
v 0.917224 7.036604 6.054348
v 1.087431 2.085626 3.750000
v 0.917224 7.036604 3.945652
v -1.087431 6.836604 6.250000
v -1.087431 6.836604 3.750000
v 1.087431 6.836604 3.750000
v 1.087431 6.836604 6.250000
v -1.087431 6.353603 6.250000
v -1.087431 6.353603 3.750000
v 1.087431 6.353603 3.750000
v 1.087431 6.353603 6.250000
v -1.087431 5.831869 3.750000
v 1.087431 5.831869 3.750000
v 1.087431 5.831869 6.250000
v -1.087431 5.831869 6.250000
vt 0.224584 0.000000
vt 0.250000 0.000000
vt 0.250000 0.250000
vt 0.224584 0.250000
vt 0.250000 0.500000
vt 0.224584 0.500000
vt 0.250000 0.750000
vt 0.224584 0.750000
vt 0.769565 0.019565
vt 0.980435 0.019565
vt 0.980435 0.230435
vt 0.769565 0.230435
vt 0.855435 0.730435
vt 0.855435 0.519565
vt 0.875000 0.500000
vt 0.875000 0.750000
vt 0.644565 0.519565
vt 0.625000 0.500000
vt 0.644565 0.730435
vt 0.625000 0.750000
vt 0.384630 0.500000
vt 0.412084 0.500000
vt 0.412084 0.750000
vt 0.384630 0.750000
vt 0.384630 0.250000
vt 0.412084 0.250000
vt 0.384630 0.000000
vt 0.412084 0.000000
vt 0.000000 0.000000
vt 0.197130 0.000000
vt 0.197130 0.250000
vt 0.000000 0.250000
vt 0.197130 0.500000
vt 0.000000 0.500000
vt 0.197130 0.750000
vt 0.000000 0.750000
vt 0.224584 0.000000
vt 0.250000 0.000000
vt 0.250000 0.250000
vt 0.224584 0.250000
vt 0.224584 0.500000
vt 0.250000 0.500000
vt 0.250000 0.750000
vt 0.224584 0.750000
vt 0.769565 0.019565
vt 0.980435 0.019565
vt 0.980435 0.230435
vt 0.769565 0.230435
vt 0.855435 0.730435
vt 0.855435 0.519565
vt 0.875000 0.500000
vt 0.875000 0.750000
vt 0.644565 0.519565
vt 0.625000 0.500000
vt 0.644565 0.730435
vt 0.625000 0.750000
vt 0.384630 0.500000
vt 0.412084 0.500000
vt 0.412084 0.750000
vt 0.384630 0.750000
vt 0.384630 0.000000
vt 0.412084 0.000000
vt 0.412084 0.250000
vt 0.384630 0.250000
vt 0.000000 0.000000
vt 0.197130 0.000000
vt 0.197130 0.250000
vt 0.000000 0.250000
vt 0.000000 0.500000
vt 0.197130 0.500000
vt 0.197130 0.750000
vt 0.000000 0.750000
vt 0.224584 0.000000
vt 0.250000 0.000000
vt 0.250000 0.250000
vt 0.224584 0.250000
vt 0.224584 0.500000
vt 0.250000 0.500000
vt 0.250000 0.750000
vt 0.224584 0.750000
vt 0.250000 1.000000
vt 0.224584 1.000000
vt 0.769565 0.019565
vt 0.980435 0.019565
vt 0.980435 0.230435
vt 0.769565 0.230435
vt 0.855435 0.730435
vt 0.855435 0.519565
vt 0.875000 0.500000
vt 0.875000 0.750000
vt 0.644565 0.519565
vt 0.625000 0.500000
vt 0.644565 0.730435
vt 0.625000 0.750000
vt 0.384630 0.750000
vt 0.412084 0.750000
vt 0.412084 1.000000
vt 0.384630 1.000000
vt 0.384630 0.500000
vt 0.412084 0.500000
vt 0.384630 0.000000
vt 0.412084 0.000000
vt 0.412084 0.250000
vt 0.384630 0.250000
vt 0.000000 0.000000
vt 0.197130 0.000000
vt 0.197130 0.250000
vt 0.000000 0.250000
vt 0.000000 0.500000
vt 0.197130 0.500000
vt 0.197130 0.750000
vt 0.000000 0.750000
vt 0.197130 1.000000
vt 0.000000 1.000000
vn -1.0000 0.0000 0.0000
vn 0.0000 0.0000 -1.0000
vn 1.0000 0.0000 0.0000
vn 0.0000 1.0000 0.0000
vn -0.7616 0.6481 0.0000
vn 0.0000 0.6993 -0.7148
vn 0.7616 0.6481 0.0000
vn 0.0000 0.6993 0.7148
vn 0.0000 0.0000 1.0000
s off
f 13/1/1 9/2/1 10/3/1 14/4/1
f 14/4/2 10/3/2 11/5/2 15/6/2
f 15/6/3 11/5/3 12/7/3 16/8/3
f 8/9/4 4/10/4 2/11/4 6/12/4
f 2/13/5 4/14/5 10/15/5 9/16/5
f 4/14/6 8/17/6 11/18/6 10/15/6
f 8/17/7 6/19/7 12/20/7 11/18/7
f 6/19/8 2/13/8 9/16/8 12/20/8
f 18/21/3 15/22/3 16/23/3 19/24/3
f 17/25/2 14/26/2 15/22/2 18/21/2
f 20/27/1 13/28/1 14/26/1 17/25/1
f 1/29/1 20/30/1 17/31/1 3/32/1
f 3/32/2 17/31/2 18/33/2 7/34/2
f 7/34/3 18/33/3 19/35/3 5/36/3
f 33/37/1 29/38/1 30/39/1 34/40/1
f 35/41/3 31/42/3 32/43/3 36/44/3
f 28/45/4 24/46/4 22/47/4 26/48/4
f 22/49/5 24/50/5 30/51/5 29/52/5
f 24/50/6 28/53/6 31/54/6 30/51/6
f 28/53/7 26/55/7 32/56/7 31/54/7
f 26/55/8 22/49/8 29/52/8 32/56/8
f 38/57/3 35/58/3 36/59/3 39/60/3
f 40/61/1 33/62/1 34/63/1 37/64/1
f 21/65/1 40/66/1 37/67/1 23/68/1
f 27/69/3 38/70/3 39/71/3 25/72/3
f 53/73/1 49/74/1 50/75/1 54/76/1
f 55/77/3 51/78/3 52/79/3 56/80/3
f 56/80/9 52/79/9 49/81/9 53/82/9
f 48/83/4 44/84/4 42/85/4 46/86/4
f 42/87/5 44/88/5 50/89/5 49/90/5
f 44/88/6 48/91/6 51/92/6 50/89/6
f 48/91/7 46/93/7 52/94/7 51/92/7
f 46/93/8 42/87/8 49/90/8 52/94/8
f 59/95/9 56/96/9 53/97/9 60/98/9
f 58/99/3 55/100/3 56/96/3 59/95/3
f 60/101/1 53/102/1 54/103/1 57/104/1
f 41/105/1 60/106/1 57/107/1 43/108/1
f 47/109/3 58/110/3 59/111/3 45/112/3
f 45/112/9 59/111/9 60/113/9 41/114/9
